<?xml version="1.0" encoding="UTF-8"?>
<svg id="Camada_2" data-name="Camada 2" xmlns="http://www.w3.org/2000/svg" viewBox="0 0 3032.9 1867.15">
  <defs>
    <style>
      .cls-1 {
        fill: #2e251b;
      }
    </style>
  </defs>
  <g id="Camada_1-2" data-name="Camada 1">
    <path class="cls-1" d="M611.6,1838.02l126.2-67.96,77.66-90.61,113.26-22.65,51.78-58.25,89.39-89.66,103.15-151.69-121.35-20.76-180.81-43.55-80.09-86.16-91.01-49.75-124.99-30.34,15.78-189.3,105.17-73.35,135.91-132.67,142.38-16.18,80.9-119.73,197.39-181.21,203.87,16.18,190.92,25.89,207.1-116.49,197.39-19.42h236.22l71.19,55.01,333.3-25.89,158.56-32.36,182.02-111.91-178.79-176.09L2087.19,0l-520.99,45.3-634.25,42.07-310.65,255.64-281.53,236.22-177.98,197.39-100.31,171.51-6.47,288L0,1546.79s106.79,139.15,110.02,148.85,161.8,100.31,161.8,100.31l177.98,71.19,161.8-29.12Z"/>
  </g>
</svg>